<svg xmlns="http://www.w3.org/2000/svg" width="99" height="91" fill="#753363"><path d="M69.7 90.85c-1.6 0-3.2-.2-4.7-.6h-.1c-5.7-1.4-11.8-1.4-17.6 0h-.1c-7.8 1.9-16.1-1-22.6-8.1-.6-.6-.5-1.6.1-2.1.6-.6 1.6-.5 2.1.1 5.8 6.2 13 8.8 19.7 7.2h.1c6.2-1.6 12.8-1.6 19 0h.1c4.8 1.2 9.7.2 14.4-2.7 7.1-4.5 12.6-13.3 14.7-23.5 3.6-17.6-3.7-34.4-16.3-37.5-5.2-1.3-10.5-.1-15.5 3.5-4.2 3-9.7 3-13.9 0-5-3.6-10.3-4.8-15.5-3.5-7.8 1.9-13.9 9.2-16.2 19.5-.2.8-1 1.3-1.8 1.1-.8-.2-1.3-1-1.1-1.8 2.6-11.5 9.5-19.6 18.4-21.8 6-1.5 12.4-.1 18 4 3.1 2.2 7.3 2.2 10.4 0 5.6-4 12-5.4 18-4 14.1 3.5 22.4 21.9 18.5 41-2.2 11-8.2 20.5-16.1 25.5-3.9 2.4-8 3.7-12 3.7z"/><path d="M56 29.25c-.7 0-1.4-.6-1.5-1.3-.1-.6-1.7-13.6 11-25 .6-.6 1.6-.5 2.1.1.6.6.5 1.6-.1 2.1-11.4 10.2-10.1 21.9-10 22.3.1.8-.5 1.6-1.3 1.7-.1.1-.2.1-.2.1z"/><path d="M49.5 17.75c-9 0-16.7-7.6-17.1-8-.3-.3-.5-.7-.4-1.2 0-.4.2-.8.6-1.1 7-5.7 13.7-8.1 19.9-7.3 7.5 1 11.5 6.4 11.6 6.6.5.7.3 1.6-.3 2.1-.7.5-1.6.3-2.1-.3 0 0-3.4-4.6-9.6-5.4-5-.6-10.4 1.2-16.2 5.5 2.7 2.3 9.3 7 15.9 5.7.8-.2 1.6.4 1.8 1.2.2.8-.4 1.6-1.2 1.8-1 .3-1.9.4-2.9.4zm2.2 59.1H7c-3.9 0-7-3.2-7-7v-16.5c0-.8.7-1.5 1.5-1.5s1.5.7 1.5 1.5v16.5c0 2.2 1.8 4 4 4h43.2v-23.2H7c-3.9 0-7-3.2-7-7s3.2-7 7-7h3.4c.8 0 1.5.7 1.5 1.5s-.7 1.5-1.5 1.5H7c-2.2 0-4 1.8-4 4s1.8 4 4 4h44.7c.8 0 1.5.7 1.5 1.5v26.2c.1.8-.6 1.5-1.5 1.5z"/><path d="M11.1 76.45c-.8 0-1.5-.7-1.5-1.5v-7.1c0-.8.7-1.5 1.5-1.5s1.5.7 1.5 1.5v7.1c0 .8-.7 1.5-1.5 1.5zm15.7 0c-.8 0-1.5-.7-1.5-1.5v-7.1c0-.8.7-1.5 1.5-1.5s1.5.7 1.5 1.5v7.1c0 .8-.7 1.5-1.5 1.5zm15.7 0c-.8 0-1.5-.7-1.5-1.5v-7.1c0-.8.7-1.5 1.5-1.5s1.5.7 1.5 1.5v7.1c0 .8-.6 1.5-1.5 1.5z"/></svg>