<svg xmlns="http://www.w3.org/2000/svg" width="97" height="90" fill="#753363"><path d="M73.7 90c-12.8 0-23.1-10.4-23.1-23.1 0-9.8 6.3-18.6 15.4-21.8V16.3c0-.8.7-1.5 1.5-1.5H80c.8 0 1.5.7 1.5 1.5v28.8c9.1 3.2 15.4 12.1 15.4 21.8C96.8 79.7 86.4 90 73.7 90zM69 17.8v28.4c0 .7-.4 1.3-1.1 1.5-8.4 2.5-14.3 10.4-14.3 19.3 0 11.1 9 20.1 20.1 20.1 11.1 0 20.1-9 20.1-20.1 0-8.8-5.9-16.7-14.3-19.3-.6-.2-1.1-.8-1.1-1.5V17.8H69z"/><path d="M82.8 17.8H64.5c-.8 0-1.5-.7-1.5-1.5s.7-1.5 1.5-1.5h18.3c.8 0 1.5.7 1.5 1.5s-.6 1.5-1.5 1.5zm10.1 41.7H61.3c-.8 0-1.5-.7-1.5-1.5s.7-1.5 1.5-1.5h31.6c.8 0 1.5.7 1.5 1.5s-.6 1.5-1.5 1.5zm-13-33.8h-3.5c-.8 0-1.5-.7-1.5-1.5s.7-1.5 1.5-1.5h3.5c.8 0 1.5.7 1.5 1.5s-.6 1.5-1.5 1.5zm0 7.3h-3.5c-.8 0-1.5-.7-1.5-1.5s.7-1.5 1.5-1.5h3.5c.8 0 1.5.7 1.5 1.5s-.6 1.5-1.5 1.5zm0 7.3h-3.5c-.8 0-1.5-.7-1.5-1.5s.7-1.5 1.5-1.5h3.5c.8 0 1.5.7 1.5 1.5 0 .9-.6 1.5-1.5 1.5zM48.8 88.7h-37C5.3 88.7 0 83.4 0 76.9c0-2.2.6-4.3 1.7-6.2l18.7-30.6V1.5c0-.8.7-1.5 1.5-1.5h16.6c.8 0 1.5.7 1.5 1.5v38.6l9.4 15.3c.4.7.2 1.6-.5 2.1-.7.4-1.6.2-2.1-.5l-9.6-15.7c-.1-.2-.2-.5-.2-.8V2.9H23.4v37.6c0 .3-.1.6-.2.8l-19 30.9c-.8 1.4-1.3 3-1.3 4.6 0 4.8 3.9 8.8 8.8 8.8h37c1.4 0 2.7-.3 4-.9.7-.4 1.7-.1 2 .7.4.7.1 1.7-.7 2-1.5.9-3.3 1.3-5.2 1.3z"/><path d="M41.1 3H19.4c-.8 0-1.5-.7-1.5-1.5S18.6 0 19.4 0h21.7c.8 0 1.5.7 1.5 1.5.1.9-.6 1.5-1.5 1.5zm-2.8 9.4h-4.2c-.8 0-1.5-.7-1.5-1.5s.7-1.5 1.5-1.5h4.2c.8 0 1.5.7 1.5 1.5s-.7 1.5-1.5 1.5zm0 8.7h-4.2c-.8 0-1.5-.7-1.5-1.5s.7-1.5 1.5-1.5h4.2c.8 0 1.5.7 1.5 1.5s-.7 1.5-1.5 1.5zm0 8.6h-4.2c-.8 0-1.5-.7-1.5-1.5s.7-1.5 1.5-1.5h4.2c.8 0 1.5.7 1.5 1.5 0 .9-.7 1.5-1.5 1.5z"/></svg>