<svg xmlns="http://www.w3.org/2000/svg" width="83" height="87" fill="#753363"><path d="M11.392 74.782c-.8 0-1.5-.7-1.5-1.5v-17.3c0-.8.7-1.5 1.5-1.5s1.5.7 1.5 1.5v17.3c0 .9-.6 1.5-1.5 1.5zm17.4 5.8c-.8 0-1.5-.7-1.5-1.5v-23.1c0-.8.7-1.5 1.5-1.5s1.5.7 1.5 1.5v23.1c0 .9-.7 1.5-1.5 1.5z"/><path d="M33.092 71.882c-3.2 0-5.9-2.6-5.9-5.9v-9.9c0-.8.7-1.5 1.5-1.5s1.5.7 1.5 1.5v9.9c0 1.6 1.3 2.8 2.8 2.8 1.6 0 2.8-1.3 2.8-2.8v-11.9c0-3.9-3.2-7.2-7.2-7.2h-17.6c-1.9-.2-3.6.4-5 1.6-1.3 1.2-2 2.9-2 4.8v12.8c0 1.6 1.3 2.8 2.8 2.8 1.6 0 2.8-1.3 2.8-2.8v-9.9c0-.8.7-1.5 1.5-1.5s1.5.7 1.5 1.5v9.9c0 3.2-2.6 5.9-5.9 5.9-3.3 0-5.9-2.6-5.9-5.9v-12.8c0-2.8 1.1-5.2 3-7 1.9-1.8 4.5-2.6 7.2-2.3h17.3c5.6 0 10.2 4.6 10.2 10.2v11.9c.5 3.2-2.2 5.8-5.4 5.8zm-13-29.6c-4.9 0-8.8-4-8.8-8.8 0-4.9 4-8.8 8.8-8.8 4.8 0 8.8 4 8.8 8.8 0 4.8-3.9 8.8-8.8 8.8zm0-14.6c-3.2 0-5.8 2.6-5.8 5.8 0 3.2 2.6 5.8 5.8 5.8 3.2 0 5.8-2.6 5.8-5.8 0-3.2-2.6-5.8-5.8-5.8zm35.1 59c-.8 0-1.5-.7-1.5-1.5v-21.8c0-.8.7-1.5 1.5-1.5s1.5.7 1.5 1.5v21.8c0 .9-.7 1.5-1.5 1.5zm17.3-4.6c-.8 0-1.5-.7-1.5-1.5v-17.3c0-.8.7-1.5 1.5-1.5s1.5.7 1.5 1.5v17.3c.1.9-.6 1.5-1.5 1.5z"/><path d="M76.892 79.182c-3.2 0-5.9-2.6-5.9-5.9v-9.9c0-.8.7-1.5 1.5-1.5s1.5.7 1.5 1.5v9.9c0 1.6 1.3 2.8 2.8 2.8 1.6 0 2.8-1.3 2.8-2.8v-11.9c0-3.9-3.2-7.2-7.2-7.2h-17.6c-1.9-.2-3.6.4-5 1.6-1.3 1.2-2 2.9-2 4.8v12.8c0 1.6 1.3 2.8 2.8 2.8 1.6 0 2.8-1.3 2.8-2.8v-9.9c0-.8.7-1.5 1.5-1.5s1.5.7 1.5 1.5v9.9c0 3.2-2.6 5.9-5.9 5.9-3.3 0-5.9-2.6-5.9-5.9v-12.8c0-2.8 1.1-5.2 3-7 1.9-1.8 4.5-2.6 7.2-2.3h17.3c5.6 0 10.2 4.6 10.2 10.2v11.9c.4 3.2-2.2 5.8-5.4 5.8zm-13-29.6c-4.9 0-8.8-4-8.8-8.8 0-4.9 4-8.8 8.8-8.8 4.9 0 8.8 4 8.8 8.8 0 4.8-4 8.8-8.8 8.8zm0-14.6c-3.2 0-5.8 2.6-5.8 5.8 0 3.2 2.6 5.8 5.8 5.8 3.2 0 5.8-2.6 5.8-5.8 0-3.2-2.6-5.8-5.8-5.8zm-26.3 8.8c-.8 0-1.5-.7-1.5-1.5l-.1-4.3c0-1.6-.5-3.2-1.3-4.5l-14.5-24.4c-1.5-2.5-.8-5.7 1.6-7.3 1.2-.8 2.7-1.1 4.1-.8 1.4.3 2.7 1.1 3.5 2.3l7.3 11.1c2.7 4.1 6.8 7.1 11.6 8.4.8.2 1.3 1.1 1.1 1.9-.2.8-1.1 1.3-1.9 1.1-5.5-1.5-10.2-5-13.3-9.7l-7.3-11.1c-.4-.5-.9-.9-1.5-1-.6-.1-1.3 0-1.8.4-1.1.7-1.4 2.1-.7 3.2l14.5 24.4c1.1 1.8 1.7 3.9 1.7 6l.1 4.3c0 .8-.7 1.5-1.6 1.5z"/><path d="M62.992 28.882c-.3 0-.5-.1-.8-.2-.7-.4-1-1.4-.5-2.1l11.3-19c.7-1.1.3-2.5-.7-3.2-.5-.4-1.2-.5-1.8-.4-.6.1-1.2.5-1.5 1l-7.3 11.1c-3.1 4.7-7.8 8.2-13.3 9.7-.8.2-1.6-.2-1.9-1.1-.2-.8.2-1.6 1.1-1.9 4.7-1.3 8.9-4.3 11.6-8.4l7.3-11.1c.8-1.2 2-2.1 3.5-2.3 1.4-.3 2.9 0 4.1.8 2.4 1.6 3.1 4.8 1.6 7.3l-11.3 19c-.4.5-.9.8-1.4.8z"/><path d="M47.892 19.482c-4.8 0-8.6-3.9-8.6-8.6 0-4.7 3.9-8.6 8.6-8.6 4.7 0 8.6 3.9 8.6 8.6 0 4.7-3.8 8.6-8.6 8.6zm0-14.2c-3.1 0-5.6 2.5-5.6 5.6 0 3.1 2.5 5.6 5.6 5.6 3.1 0 5.6-2.5 5.6-5.6 0-3.1-2.5-5.6-5.6-5.6z"/></svg>