<svg xmlns="http://www.w3.org/2000/svg" width="94" height="89" fill="#753363"><path d="M16 88.914c-.7 0-1.3-.5-1.5-1.2-3.2-14 1.1-22.3 5.2-30.2.6-1.1 1.2-2.3 1.8-3.5.4-.8 1.3-1.1 2-.7.8.4 1.1 1.3.7 2-.6 1.2-1.2 2.4-1.8 3.5-4.1 7.9-7.9 15.3-5 28.2.2.8-.3 1.6-1.1 1.8-.1.1-.2.1-.3.1zm10.8-68.6c-.7 0-1.4-.5-1.5-1.3-1.7-10.4-4.5-16.9-4.5-16.9-.3-.8 0-1.7.8-2 .8-.3 1.7 0 2 .8.1.3 3.1 6.9 4.8 17.7.1.8-.4 1.6-1.3 1.7h-.3zm64.5 68.6H91c-.8-.2-1.3-1-1.1-1.8 2.9-12.9-.9-20.3-5-28.2-3.3-6.4-6.7-13-7-23-.5-20.4 5.7-34.4 5.9-35 .3-.8 1.2-1.1 2-.8.8.3 1.1 1.2.8 2-.1.1-6.1 14.1-5.7 33.7.2 9.2 3.5 15.5 6.6 21.6 4.1 8 8.4 16.3 5.2 30.2-.1.8-.7 1.3-1.4 1.3z"/><path d="M53.7 68.714c-11.5 0-23-2.1-34-6.2-.8-.3-1.2-1.2-.9-2 .3-.8 1.2-1.2 2-.9 21.2 8 44.6 8 65.8 0 .8-.3 1.7.1 2 .9.3.8-.1 1.7-.9 2-11 4.1-22.5 6.2-34 6.2zm0 20.2c-.4 0-.8-.1-1.1-.4-13.7-13.8-30.3-16.7-30.5-16.7-.8-.1-1.4-.9-1.2-1.7.1-.8.9-1.4 1.7-1.2.7.1 17.7 3.1 32.1 17.6.6.6.6 1.6 0 2.1-.3.1-.7.3-1 .3z"/><path d="M53.7 88.914c-.4 0-.8-.1-1.1-.4-.6-.6-.6-1.6 0-2.1 14.5-14.5 31.4-17.5 32.1-17.6.8-.1 1.6.4 1.7 1.2.1.8-.4 1.6-1.2 1.7-.2 0-16.7 2.9-30.5 16.7-.3.3-.6.5-1 .5zm0-27.5h-.3c-.1 0-.2-.1-.3-.1-.1 0-.2-.1-.3-.1-.1-.1-.2-.1-.2-.2l-.2-.2c-.1-.1-.1-.2-.1-.3 0-.1-.1-.2-.1-.3v-.6c0-.1 0-.2.1-.3 0-.1.1-.2.1-.3.1-.1.1-.2.2-.2l.2-.2c.1-.1.2-.1.3-.1.1 0 .2-.1.3-.1.5-.1 1 .1 1.4.4l.2.2c.1.1.1.2.1.3 0 .1.1.2.1.3v.6c0 .1-.1.2-.1.3 0 .1-.1.2-.1.3-.1.1-.1.2-.2.2-.4.2-.7.4-1.1.4zm-2-9.9H7c-3.9 0-7-3.2-7-7v-16.5c0-.8.7-1.5 1.5-1.5s1.5.7 1.5 1.5v16.5c0 2.2 1.8 4 4 4h43.2v-23.2H7c-3.9 0-7-3.2-7-7 0-3.9 3.2-7 7-7h8.2c.8 0 1.5.7 1.5 1.5s-.7 1.5-1.5 1.5H7c-2.2 0-4 1.8-4 4s1.8 4 4 4h44.7c.8 0 1.5.7 1.5 1.5v26.2c0 .8-.7 1.5-1.5 1.5z"/><path d="M11 51.114c-.8 0-1.5-.7-1.5-1.5v-7.1c0-.8.7-1.5 1.5-1.5s1.5.7 1.5 1.5v7.1c.1.8-.6 1.5-1.5 1.5zm15.8 0c-.8 0-1.5-.7-1.5-1.5v-7.1c0-.8.7-1.5 1.5-1.5s1.5.7 1.5 1.5v7.1c0 .8-.7 1.5-1.5 1.5zm15.7 0c-.8 0-1.5-.7-1.5-1.5v-7.1c0-.8.7-1.5 1.5-1.5s1.5.7 1.5 1.5v7.1c0 .8-.7 1.5-1.5 1.5z"/></svg>