<svg xmlns="http://www.w3.org/2000/svg" width="91" height="91" fill="#753363"><path d="M45.511 90.8c-25 0-45.4-20.4-45.4-45.4S20.511 0 45.511 0s45.4 20.4 45.4 45.4-20.4 45.4-45.4 45.4zm0-87.8c-23.3 0-42.3 19-42.3 42.3 0 23.3 19 42.3 42.3 42.3 23.3 0 42.3-19 42.3-42.3 0-23.3-19-42.3-42.3-42.3z"/><path d="M62.31 30.1c-.4 0-.8-.1-1.1-.4-.6-.6-.6-1.6 0-2.1l13.7-13.7c.6-.6 1.601-.6 2.101 0 .6.6.6 1.6 0 2.1l-13.7 13.7c-.2.2-.6.4-1 .4zm-47.4 47.4c-.4 0-.8-.1-1.1-.4-.6-.6-.6-1.6 0-2.1l7.6-7.6c.6-.6 1.601-.6 2.101 0 .6.6.6 1.6 0 2.1l-7.6 7.6c-.2.2-.6.4-1 .4zm30.601.9c-.8 0-1.5-.7-1.5-1.5V30.6c0-.8.7-1.5 1.5-1.5s1.5.7 1.5 1.5v46.3c0 .8-.7 1.5-1.5 1.5z"/><path d="M45.511 78.4h-3.8c-8.4 0-15.2-6.8-15.2-15.2v-2.6c0-.8.7-1.5 1.5-1.5h7.6c6.2 0 11.3 5.1 11.3 11.3v6.4c.1.9-.6 1.6-1.4 1.6zm-15.9-16.2v1.1c0 6.7 5.4 12.1 12.1 12.1h2.2v-4.9c0-4.6-3.7-8.3-8.3-8.3h-6zm15.9-2.6c-.8 0-1.5-.7-1.5-1.5 0-4.5-2.7-8.2-5.9-8.2h-6.1c.1 2.1.7 3.5 1.7 5.4.4.7.1 1.7-.6 2.1-.7.4-1.7.1-2.1-.6-1.3-2.4-2.2-4.5-2.2-7.8v-.6c0-.8.7-1.5 1.5-1.5h7.6c4.9 0 9 5 9 11.2.1.8-.6 1.5-1.4 1.5zm0-12.9c-.8 0-1.5-.7-1.5-1.5 0-3.7-2.1-6.6-4.7-6.6h-4.9c.1 1.5.6 2.5 1.4 4 .4.7.1 1.7-.6 2.1-.7.4-1.7.1-2.1-.6-1-1.8-1.8-3.6-1.8-6.5v-.5c0-.8.7-1.5 1.5-1.5h6.4c4.3 0 7.8 4.3 7.8 9.7 0 .8-.7 1.4-1.5 1.4zm0-11.2c-.8 0-1.5-.7-1.5-1.5 0-2.8-1.7-5.2-3.7-5.2h-3.7c.1 1 .5 1.7 1.1 2.8.4.7.1 1.7-.6 2.1-.7.4-1.7.1-2.1-.6-.9-1.7-1.6-3-1.6-5.4v-.4c0-.8.7-1.5 1.5-1.5h5.3c3.7 0 6.7 3.7 6.7 8.3.1.7-.6 1.4-1.4 1.4z"/><path d="M49.21 78.4h-3.799c-.8 0-1.5-.7-1.5-1.5v-6.4c0-6.2 5.1-11.3 11.3-11.3h7.6c.8 0 1.5.7 1.5 1.5v2.6c.1 8.3-6.7 15.1-15.1 15.1zm0-3c6.7 0 12.101-5.4 12.101-12.1v-1.1h-6.1c-4.6 0-8.3 3.7-8.3 8.3v4.9h2.3zm-3.699-15.8c-.8 0-1.5-.7-1.5-1.5 0-6.2 4-11.2 9-11.2h7.6c.8 0 1.5.7 1.5 1.5v.6c0 3.2-.8 5.4-2.2 7.8-.4.7-1.3 1-2.1.6-.7-.4-1-1.3-.6-2.1 1-1.8 1.6-3.3 1.7-5.4h-6.1c-3.3 0-5.9 3.7-5.9 8.2.1.8-.6 1.5-1.4 1.5zm0-12.9c-.8 0-1.5-.7-1.5-1.5 0-5.3 3.5-9.7 7.8-9.7h6.4c.8 0 1.5.7 1.5 1.5v.5c0 3-.8 4.7-1.8 6.5-.4.7-1.3 1-2.1.6-.7-.4-1-1.3-.6-2.1.8-1.5 1.3-2.5 1.4-4h-4.9c-2.6 0-4.7 3-4.7 6.6 0 1-.7 1.6-1.5 1.6zm0-11.2c-.8 0-1.5-.7-1.5-1.5 0-4.6 3-8.3 6.7-8.3h5.3c.8 0 1.5.7 1.5 1.5v.4c0 2.4-.6 3.7-1.6 5.4-.4.7-1.3 1-2.1.6-.7-.4-1-1.3-.6-2.1.6-1.1 1-1.8 1.1-2.8h-3.7c-2 0-3.7 2.4-3.7 5.2.1.9-.6 1.6-1.4 1.6z"/><path d="M45.511 32.1c-.5 0-.9-.2-1.2-.6l-2.5-3.3c-2.6-3.4-2.6-8.6 0-12l2.5-3.3c.6-.7 1.8-.7 2.4 0l2.5 3.3c2.6 3.4 2.6 8.6 0 12l-2.5 3.3c-.3.4-.7.6-1.2.6zm0-15.7l-1.3 1.7c-1.7 2.2-1.7 6 0 8.3l1.3 1.7 1.3-1.7c1.7-2.2 1.7-6 0-8.3l-1.3-1.7z"/></svg>