<svg xmlns="http://www.w3.org/2000/svg" width="94" height="94" fill="#753363"><path d="M29.962 93.45c-.4 0-.8-.1-1.1-.4-.6-.6-.6-1.6 0-2.1.2-.2 21.6-22 16.5-43.8-2.3-9.9-.1-21.1 6.6-32.5 5-8.5 10.5-14 10.7-14.2.6-.6 1.6-.6 2.1 0 .6.6.6 1.6 0 2.1-.2.2-21.7 21.6-16.5 43.8 2.3 9.8 0 20.9-6.6 32.3-4.9 8.5-10.5 14.1-10.7 14.3-.2.4-.6.5-1 .5z"/><path d="M1.661 65.15c-.4 0-.8-.1-1.1-.4-.6-.6-.6-1.6 0-2.1.2-.2 5.8-5.8 14.3-10.7 11.4-6.6 22.5-8.9 32.3-6.6 22.2 5.2 43.6-16.3 43.8-16.5.6-.6 1.5-.6 2.1 0 .6.6.6 1.5 0 2.1-.2.2-5.7 5.8-14.2 10.7-11.3 6.6-22.5 8.9-32.5 6.6-21.8-5.1-43.6 16.3-43.8 16.5-.1.2-.5.4-.9.4z"/><path d="M84.462 30.85c-.4 0-.8-.1-1.1-.4l-23.9-23.9c-.6-.6-.6-1.6 0-2.1.6-.6 1.6-.6 2.1 0l23.9 23.9c.6.6.6 1.6 0 2.1-.2.2-.6.4-1 .4zm-10.801 6.9c-.4 0-.8-.1-1.1-.4l-20-20c-.6-.6-.6-1.6 0-2.1.6-.6 1.6-.6 2.1 0l20 20c.6.6.6 1.6 0 2.1-.2.2-.6.4-1 .4zm-13.1 4.5c-.4 0-.8-.1-1.1-.4l-12.7-12.7c-.6-.6-.6-1.6 0-2.1.6-.6 1.6-.6 2.1 0l12.7 12.7c.6.6.6 1.6 0 2.1-.2.3-.6.4-1 .4zm-27.4 47.3c-.4 0-.8-.1-1.1-.4l-23.9-23.9c-.6-.6-.6-1.6 0-2.1.6-.6 1.6-.6 2.1 0l23.9 23.9c.6.6.6 1.6 0 2.1-.2.2-.6.4-1 .4zm7.1-10.5c-.4 0-.8-.1-1.1-.4l-20.3-20.3c-.6-.6-.6-1.6 0-2.1.6-.6 1.6-.6 2.1 0l20.3 20.3c.6.6.6 1.6 0 2.1-.2.2-.6.4-1 .4zm5.4-12.3c-.4 0-.8-.1-1.1-.4l-12.5-12.5c-.6-.6-.6-1.6 0-2.1.6-.6 1.6-.6 2.1 0l12.5 12.5c.6.6.6 1.6 0 2.1-.2.2-.6.4-1 .4z"/></svg>