<svg xmlns="http://www.w3.org/2000/svg" width="110" height="88" fill="#753363"><path d="M79.033 85.125c-.4 0-.7-.1-1-.4-6.2-5.6-9.7-13.1-9.7-21s3.4-15.4 9.7-21c.6-.5 1.5-.5 2 0 6.2 5.6 9.7 13.1 9.7 21s-3.4 15.4-9.7 21c-.3.2-.7.4-1 .4zm0-39.2c-4.9 4.9-7.6 11.2-7.6 17.8 0 6.6 2.7 12.9 7.6 17.8 4.9-4.9 7.6-11.2 7.6-17.8 0-6.7-2.7-12.9-7.6-17.8z"/><path d="M88.833 87.025c-3.4 0-7-.7-10.4-2.1-.8-.3-1.2-1.2-.8-2 .3-.8 1.2-1.2 2-.8 6.6 2.7 13.6 2.5 18.9-.5 4.1-2.3 6.8-6.1 7.9-11-.4-.1-.7-.2-1-.3-.8-.2-1.3-1-1.2-1.8.2-.8 1-1.3 1.8-1.2.9.2 1.7.5 2.7.9.7.3 1 .9.9 1.6-1 6.4-4.3 11.4-9.6 14.4-3.3 1.9-7.2 2.8-11.2 2.8z"/><path d="M79.233 85.025l-.5-3c8-1.5 14.5-5.5 17.7-11 2.6-4.4 3.1-9.6 1.5-15.2-1.1.3-2.4.7-3.6 1.1-.8.3-1.7-.1-1.9-.9-.3-.8.1-1.7.9-1.9 1.8-.6 3.9-1.2 5.3-1.5.7-.1 1.5.3 1.7 1 2.4 6.9 1.9 13.5-1.3 19-3.6 6.3-10.9 10.8-19.8 12.4z"/><path d="M69.133 87.025c-4 0-7.9-.9-11.1-2.8-5.3-3-8.6-8-9.6-14.4-.1-.7.3-1.4.9-1.6 1-.4 1.8-.7 2.7-.9.8-.2 1.6.3 1.8 1.2.2.8-.3 1.6-1.2 1.8-.3.1-.7.2-1 .3 1.1 4.9 3.8 8.7 7.9 11 5.3 3 12.4 3.2 18.9.5.8-.3 1.7.1 2 .8.3.8-.1 1.7-.8 2-3.5 1.4-7.1 2.1-10.5 2.1z"/><path d="M79.033 85.125h-.3c-8.9-1.6-16.1-6.2-19.8-12.5-3.2-5.5-3.7-12.1-1.3-19 .2-.7 1-1.1 1.7-1 1.8.3 3.7.9 5.5 1.6.8.3 1.1 1.2.8 2-.3.8-1.2 1.1-2 .8-1.2-.5-2.4-.9-3.6-1.2-1.6 5.6-1.1 10.8 1.5 15.2 3.2 5.5 9.7 9.6 17.7 11 .8.2 1.4.9 1.2 1.8-.1.8-.7 1.3-1.4 1.3zm-27-33.2h-.2l-3.3-.5c-.8-.1-1.4-.9-1.3-1.7.1-.8.9-1.4 1.7-1.3l3.3.5c.8.1 1.4.9 1.3 1.7-.2.8-.8 1.3-1.5 1.3z"/><path d="M38.833 59.625c-5.9 0-11.4-3-14.5-8-.4-.7-.2-1.6.5-2.1.7-.4 1.6-.2 2.1.5 2.6 4.1 7 6.6 11.9 6.6s9.3-2.5 11.9-6.6c.4-.7 1.4-.9 2.1-.5.7.4.9 1.4.5 2.1-3.2 5-8.6 8-14.5 8z"/><path d="M1.933 87.025h-.2c-.8-.1-1.4-.8-1.4-1.7l2.2-21.4c.7-6.8 5.9-12.3 12.6-13.4l13.4-2.2c.8-.1 1.6.4 1.7 1.3.1.8-.4 1.6-1.3 1.7l-13.4 2.2c-5.4.9-9.5 5.3-10.1 10.7l-2.2 21.4c.2.8-.5 1.4-1.3 1.4z"/><path d="M28.933 51.425c-.3 0-.5-.1-.8-.2-.7-.4-1-1.3-.6-2.1l1.4-2.5c.4-.7 1.3-1 2.1-.6.7.4 1 1.3.6 2.1l-1.4 2.5c-.3.5-.8.8-1.3.8zm19.8 0c-.5 0-1-.3-1.3-.8l-1.4-2.5c-.4-.7-.2-1.7.6-2.1.7-.4 1.7-.2 2.1.6l1.4 2.5c.4.7.2 1.7-.6 2.1-.3.1-.6.2-.8.2zm-9.9-6.1c-8 0-12.8-7.3-14.7-13.8-1.6-1.3-2.2-4.5-2.5-6.5v-.1c-.1-2.3.5-4 2.1-4.9.2-.8.7-2.1 1.4-3.4 1.6-2.8 1.9-6.2.9-9.1-.2-.5-.3-.8-.3-.9-.2-.8.2-1.6 1-1.8.8-.3 1.6.1 1.9.8l.1.1c.1.2.2.4.2.6.7 1.4 3.2 4.9 11.2 4.6 5.6-.2 9.7 1 12 3.6 1.8 2 2.1 4.3 2.1 5.6 1.3.9 1.9 2.5 1.8 4.7-.2 2-.8 5.2-2.4 6.5-1.8 7-6.6 14-14.8 14zm-12.9-16.2c.4.2.8.6.9 1 1.5 5.6 5.5 12.1 11.9 12.1 8.5 0 11.3-9.3 12-12.1.1-.5.4-.9.9-1 .4-.4 1-2.5 1.3-4.4.1-1.6-.3-1.9-.9-2.2-.7-.3-1-1-.9-1.7 0-.1.3-2.4-1.3-4.2-1.7-1.9-5-2.8-9.6-2.6-5.1.2-8.4-.9-10.6-2.4-.1 2.3-.7 4.5-1.9 6.5-.9 1.6-1.3 3.2-1.3 3.3-.1.5-.5.9-.9 1.1-.5.2-1 .5-.9 2.2.2 1.9.9 4 1.3 4.4z"/><path d="M14.133 48.025c-.8 0-1.4-.6-1.5-1.4 0-.3-.6-6.6.3-14.6 1.2-10.8 4.2-19.1 9.2-24.4 4.3-4.7 9.9-7.1 16.7-7.1 7.2 0 13.1 2.5 17.6 7.4 4.9 5.4 8 13.6 9.2 24.3.8 7.9.3 14.1.3 14.4-.1.8-.8 1.4-1.7 1.4-.8-.1-1.4-.8-1.4-1.7 0-.2 2.1-24.5-8.7-36.4-3.9-4.3-9-6.4-15.3-6.4-5.9 0-10.8 2.1-14.5 6.1-10.7 11.7-8.7 36.5-8.7 36.7.1.8-.5 1.6-1.4 1.6l-.1.1z"/></svg>