<svg xmlns="http://www.w3.org/2000/svg" width="251" height="50" fill="#753363" viewBox="0 0 340 68"><path d="M29.47 33.9H12.6v17.43H3.81V8.67h27.77v7.12H12.6v11.02h16.87v7.09zm16.2 17.43h-8.79V8.67h8.79v42.66zm39.04-35.54H71.64v35.54h-8.79V15.79H49.96V8.67h34.75v7.12zm30.37 25.05c0-2.36-.83-4.23-2.49-5.61-1.66-1.38-4.7-2.68-9.11-3.93-4.41-1.24-7.64-2.59-9.67-4.06-2.89-2.07-4.34-4.79-4.34-8.14 0-3.35 1.34-5.91 4.03-7.95 2.69-2.04 6.12-3.06 10.3-3.06 2.83 0 5.37.55 7.6 1.64 2.24 1.09 3.97 2.62 5.2 4.57 1.23 1.95 1.85 4.13 1.85 6.53h-3.63c0-2.92-1-5.26-2.99-7.04-1.99-1.78-4.67-2.66-8.03-2.66-3.36 0-5.86.73-7.79 2.19-1.93 1.46-2.9 3.36-2.9 5.71 0 2.17.87 3.94 2.61 5.31 1.74 1.37 4.52 2.58 8.35 3.62 3.83 1.05 6.73 2.13 8.7 3.25 1.97 1.12 3.46 2.47 4.45 4.03 1 1.56 1.49 3.41 1.49 5.54 0 3.36-1.34 6.05-4.03 8.09-2.69 2.03-6.23 3.05-10.62 3.05-3.01 0-5.77-.54-8.28-1.61s-4.41-2.58-5.71-4.51c-1.3-1.93-1.95-4.15-1.95-6.65h3.6c0 3.01 1.12 5.38 3.37 7.12 2.25 1.74 5.23 2.61 8.96 2.61 3.32 0 5.99-.73 8-2.2 2.01-1.46 3.02-3.41 3.02-5.83l.01-.01zm14.64-6.89v17.37h-3.6V8.67h14.53c4.43 0 7.93 1.13 10.5 3.4 2.57 2.27 3.85 5.38 3.85 9.35 0 3.97-1.24 7.09-3.71 9.27-2.47 2.18-6.05 3.27-10.74 3.27h-10.84l.01-.01zm0-3.05h10.93c3.5 0 6.16-.83 8-2.49 1.84-1.66 2.75-3.98 2.75-6.95s-.91-5.31-2.74-7.06-4.42-2.65-7.78-2.68h-11.16v19.19-.01zm48.92 2.64h-12.39v17.78h-3.63V8.67h13.86c4.55 0 8.11 1.1 10.66 3.31 2.56 2.21 3.84 5.29 3.84 9.25 0 2.73-.8 5.14-2.4 7.23-1.6 2.09-3.75 3.53-6.45 4.33l10.66 18.16v.38h-3.84l-10.31-17.78v-.01zm-12.39-3.05h11.05c3.03 0 5.46-.86 7.29-2.58 1.84-1.72 2.75-3.95 2.75-6.69 0-3.01-.96-5.35-2.87-7.01-1.91-1.66-4.6-2.49-8.06-2.49h-10.17V30.5l.01-.01zm57.73.39h-19.95v17.4h22.94v3.05h-26.54V8.67h26.4v3.05h-22.79v16.11h19.95v3.05h-.01zm34.36 9.96c0-2.36-.83-4.23-2.49-5.61-1.66-1.38-4.7-2.68-9.11-3.93-4.41-1.24-7.64-2.59-9.67-4.06-2.89-2.07-4.34-4.79-4.34-8.14 0-3.35 1.34-5.91 4.03-7.95 2.69-2.04 6.12-3.06 10.3-3.06 2.83 0 5.37.55 7.6 1.64 2.24 1.09 3.97 2.62 5.2 4.57 1.23 1.95 1.85 4.13 1.85 6.53h-3.63c0-2.92-1-5.26-2.99-7.04-1.99-1.78-4.67-2.66-8.03-2.66-3.36 0-5.86.73-7.79 2.19-1.93 1.46-2.9 3.36-2.9 5.71 0 2.17.87 3.94 2.61 5.31 1.74 1.37 4.52 2.58 8.35 3.62s6.73 2.13 8.7 3.25c1.97 1.12 3.46 2.47 4.45 4.03 1 1.56 1.49 3.41 1.49 5.54 0 3.36-1.34 6.05-4.03 8.09-2.69 2.03-6.23 3.05-10.62 3.05-3.01 0-5.77-.54-8.28-1.61s-4.41-2.58-5.71-4.51c-1.3-1.93-1.95-4.15-1.95-6.65h3.6c0 3.01 1.12 5.38 3.37 7.12 2.25 1.74 5.23 2.61 8.96 2.61 3.32 0 5.99-.73 8-2.2 2.01-1.47 3.02-3.41 3.02-5.83l.01-.01zm35.18 0c0-2.36-.83-4.23-2.49-5.61-1.66-1.38-4.7-2.68-9.11-3.93-4.41-1.24-7.64-2.59-9.67-4.06-2.89-2.07-4.34-4.79-4.34-8.14 0-3.35 1.34-5.91 4.03-7.95 2.69-2.04 6.12-3.06 10.3-3.06 2.83 0 5.37.55 7.6 1.64 2.24 1.09 3.97 2.62 5.2 4.57 1.23 1.95 1.85 4.13 1.85 6.53h-3.63c0-2.92-1-5.26-2.99-7.04-1.99-1.78-4.67-2.66-8.03-2.66-3.36 0-5.86.73-7.79 2.19-1.93 1.46-2.9 3.36-2.9 5.71 0 2.17.87 3.94 2.61 5.31 1.74 1.37 4.52 2.58 8.35 3.62s6.73 2.13 8.7 3.25c1.97 1.12 3.46 2.47 4.45 4.03 1 1.56 1.49 3.41 1.49 5.54 0 3.36-1.34 6.05-4.03 8.09-2.69 2.03-6.23 3.05-10.62 3.05-3.01 0-5.77-.54-8.28-1.61s-4.41-2.58-5.71-4.51c-1.3-1.93-1.95-4.15-1.95-6.65h3.6c0 3.01 1.12 5.38 3.37 7.12 2.25 1.74 5.23 2.61 8.96 2.61 3.32 0 5.99-.73 8-2.2 2.01-1.47 3.02-3.41 3.02-5.83l.01-.01zm42.56-8.53c0 3.93-.68 7.37-2.04 10.34-1.36 2.97-3.3 5.25-5.82 6.86-2.52 1.6-5.43 2.4-8.73 2.4-4.98 0-9-1.78-12.07-5.35-3.07-3.56-4.6-8.37-4.6-14.43v-4.39c0-3.89.69-7.33 2.07-10.33s3.33-5.3 5.84-6.91c2.51-1.61 5.42-2.42 8.7-2.42 3.28 0 6.18.79 8.69 2.37s4.45 3.82 5.82 6.71 2.08 6.24 2.14 10.05v5.1zm-3.6-4.63c0-5.14-1.16-9.16-3.49-12.07-2.32-2.91-5.51-4.37-9.55-4.37-4.04 0-7.12 1.46-9.48 4.38-2.35 2.92-3.53 7-3.53 12.23v4.45c0 5.06 1.17 9.07 3.52 12.03 2.35 2.96 5.53 4.44 9.55 4.44 4.02 0 7.27-1.46 9.55-4.38 2.29-2.92 3.43-6.99 3.43-12.2v-4.51z"/></svg>