<svg xmlns="http://www.w3.org/2000/svg" width="65" height="88" fill="#753363"><path d="M32.111 87.7c-.8 0-1.5-.7-1.5-1.5V23.8c0-.8.7-1.5 1.5-1.5s1.5.7 1.5 1.5v62.4c0 .9-.7 1.5-1.5 1.5z"/><path d="M32.111 87.7h-9.5c-12.4 0-22.5-10.1-22.5-22.5v-.8c0-.8.7-1.5 1.5-1.5h15.4c9.1 0 16.6 7.4 16.6 16.6v6.8c0 .8-.7 1.4-1.5 1.4zm-29-21.8c.3 10.4 8.9 18.8 19.4 18.8h8v-5.3c0-7.5-6.1-13.5-13.5-13.5h-13.9zm29-3.5c-.8 0-1.5-.7-1.5-1.5 0-6.4-5.2-11.5-11.5-11.5h-11.9c.1 3.3 1.2 6.4 3.1 9 .5.7.3 1.6-.3 2.1-.7.5-1.6.3-2.1-.3-2.4-3.4-3.7-7.4-3.7-11.5v-.8c0-.8.7-1.5 1.5-1.5h13.4c8 0 14.6 6.5 14.6 14.6-.1.7-.8 1.4-1.6 1.4zm0-17.3c-.8 0-1.5-.7-1.5-1.5 0-5.2-4.2-9.5-9.5-9.5h-9.7c.2 2.6 1 5.1 2.6 7.2.5.7.3 1.6-.3 2.1-.7.5-1.6.3-2.1-.3-2.1-2.9-3.2-6.3-3.2-9.8v-.7c0-.8.7-1.5 1.5-1.5h11.3c6.9 0 12.5 5.6 12.5 12.5-.1.8-.8 1.5-1.6 1.5zm0-15.2c-.8 0-1.5-.7-1.5-1.5 0-4.2-3.4-7.6-7.6-7.6h-7.7c.2 2 .9 3.9 2.1 5.5.5.7.3 1.6-.3 2.1-.7.5-1.6.3-2.1-.3-1.7-2.4-2.7-5.3-2.7-8.3v-.5c0-.8.7-1.5 1.5-1.5h9.3c5.8 0 10.6 4.8 10.6 10.6-.1.8-.8 1.5-1.6 1.5z"/><path d="M41.611 87.7h-9.5c-.8 0-1.5-.7-1.5-1.5v-6.8c0-9.1 7.4-16.6 16.6-16.6h15.4c.8 0 1.5.7 1.5 1.5v.9c-.1 12.5-10.1 22.5-22.5 22.5zm-8-3h8c10.5 0 19.1-8.4 19.4-18.8h-13.9c-7.5 0-13.5 6.1-13.5 13.5v5.3zm-1.5-22.3c-.8 0-1.5-.7-1.5-1.5 0-8 6.5-14.6 14.6-14.6h13.4c.8 0 1.5.7 1.5 1.5v.8c0 4.2-1.3 8.2-3.7 11.5-.5.7-1.4.8-2.1.3-.7-.5-.8-1.4-.3-2.1 1.9-2.7 3-5.8 3.1-9h-11.9c-6.4 0-11.5 5.2-11.5 11.5-.1.9-.8 1.6-1.6 1.6zm0-17.3c-.8 0-1.5-.7-1.5-1.5 0-6.9 5.6-12.5 12.5-12.5h11.3c.8 0 1.5.7 1.5 1.5v.7c0 3.6-1.1 7-3.2 9.8-.5.7-1.4.8-2.1.3-.7-.5-.8-1.4-.3-2.1 1.5-2.1 2.4-4.6 2.6-7.2h-9.7c-5.2 0-9.5 4.2-9.5 9.5-.1.8-.8 1.5-1.6 1.5zm0-15.2c-.8 0-1.5-.7-1.5-1.5 0-5.8 4.7-10.6 10.6-10.6h9.3c.8 0 1.5.7 1.5 1.5v.5c0 3-.9 5.9-2.7 8.3-.5.7-1.4.8-2.1.3-.7-.5-.8-1.4-.3-2.1 1.2-1.6 1.9-3.5 2.1-5.5h-7.7c-4.2 0-7.6 3.4-7.6 7.6-.1.8-.8 1.5-1.6 1.5z"/><path d="M32.111 25.4c-.4 0-.8-.2-1.1-.4l-4.4-4.4c-4.3-4.3-4.3-11.4 0-15.8l4.4-4.4c.3-.3.7-.4 1.1-.4.4 0 .8.2 1.1.4l4.4 4.4c4.3 4.3 4.3 11.4 0 15.8l-4.4 4.4c-.4.2-.7.4-1.1.4zm0-21.9l-3.4 3.4c-3.2 3.2-3.2 8.3 0 11.5l3.4 3.4 3.4-3.4c3.2-3.2 3.2-8.3 0-11.5l-3.4-3.4z"/></svg>