<svg xmlns="http://www.w3.org/2000/svg" width="95" height="93" fill="#753363"><path d="M18.711 76.3c-2.7 0-5.3-.8-7.8-2.4-5.1-3.2-8.8-9.1-10.3-16.3-2.5-12.3 2.9-24 12-26.3 3.9-1 8 0 11.7 2.6 1.7 1.2 4.1 1.2 5.8 0 3.7-2.6 7.8-3.5 11.7-2.6 5.6 1.4 10 6.4 11.8 13.5.2.8-.3 1.6-1.1 1.8-.8.2-1.6-.3-1.8-1.1-1.5-5.9-5.1-10.1-9.6-11.2-3.1-.8-6.2 0-9.2 2.1-2.8 2-6.5 2-9.3 0-3-2.1-6.1-2.8-9.2-2.1-7.5 1.8-11.9 12-9.7 22.7 1.3 6.2 4.6 11.6 8.9 14.3 2.8 1.8 5.7 2.3 8.5 1.6 4-1 8.2-1 12.2 0 .8.2 1.3 1 1.1 1.8-.2.8-1 1.3-1.8 1.1-3.6-.9-7.2-.9-10.7 0-1.1.4-2.1.5-3.2.5z"/><path d="M27.211 37.9c-.7 0-1.4-.6-1.5-1.3 0-.4-1.1-8.8 7-16.1.6-.6 1.6-.5 2.1.1.6.6.5 1.6-.1 2.1-6.9 6.2-6.1 13.4-6.1 13.4.1.8-.5 1.6-1.3 1.7 0 .1-.1.1-.1.1z"/><path d="M23.212 30.7c-5.9 0-10.8-4.9-11.1-5.1-.3-.3-.5-.7-.4-1.2 0-.4.2-.8.6-1.1 4.5-3.6 8.8-5.2 12.9-4.7 4.9.7 7.5 4.2 7.6 4.4.5.7.3 1.6-.3 2.1-.7.5-1.6.3-2.1-.3 0-.1-2-2.7-5.6-3.1-2.8-.4-5.8.6-9.1 2.9 1.9 1.4 5.4 3.6 8.9 3 .8-.2 1.6.4 1.8 1.2.2.8-.4 1.6-1.2 1.8-.8.1-1.4.1-2 .1zm15.799 61.8c-1.2 0-2.3-.3-3-1-4.2-3.8 2.6-15.8 4.8-19.7 4.7-8.3 11.7-18 17.7-24.6 5.7-6.3 10-9.2 13.7-9.4 3.5-.2 5.9 2 8.2 4.2l.7.6c2.3 2.1 4.7 4.3 4.9 7.8.2 3.7-2.3 8.2-8 14.5-8 8.6-29.5 27.6-39 27.6zm33.5-51.7h-.2c-2.8.1-6.6 2.9-11.6 8.4-14 15.4-25.7 37.3-22.7 40 3 2.7 23.7-11 37.7-26.4 5-5.5 7.4-9.6 7.3-12.3-.1-2.2-1.8-3.7-3.9-5.6l-.7-.6c-2.2-2-3.8-3.5-5.9-3.5z"/><path d="M77.712 43.1c-.2 0-.3 0-.5-.1-.8-.3-1.2-1.2-.9-1.9 0 0 .7-2.3-1.8-6.2-.4-.7-.3-1.5.4-2l5-3.8c.7-.5 1.6-.4 2.1.3 2.4 3.1 2.6 8.7 2.6 9 0 .8-.6 1.5-1.5 1.6-.8 0-1.5-.6-1.6-1.5 0-1.1-.3-3.9-1.2-5.9l-2.6 2c2.4 4.5 1.5 7.3 1.4 7.6-.2.6-.7.9-1.4.9z"/><path d="M90.211 46.5c-.2 0-.5-.1-.7-.2-4.2-2.1-8-.5-8.1-.5-.8.3-1.7 0-2-.8-.3-.8 0-1.7.8-2 .2-.1 4.3-1.9 9.3-.1l1.3-3c-2.6-.9-6-.4-7.3-.1-.8.2-1.6-.3-1.8-1.1-.2-.8.3-1.6 1.1-1.8.3-.1 6.5-1.6 10.8 1 .6.4.9 1.2.6 1.9l-2.6 5.7c-.2.4-.5.7-.9.8-.1.1-.3.2-.5.2zm-22.599-.1c-.4 0-.7-.1-1-.4l-2.4-2.2c-.6-.6-.7-1.5-.1-2.1.6-.6 1.5-.7 2.1-.1l2.4 2.2c.6.6.7 1.5.1 2.1-.2.4-.6.5-1.1.5zM55.011 68.8c-.4 0-.7-.1-1-.4l-2.4-2.2c-.6-.6-.7-1.5-.1-2.1.6-.6 1.5-.7 2.1-.1l2.4 2.2c.6.6.7 1.5.1 2.1-.2.3-.7.5-1.1.5zm17.701-9.7c-.4 0-.7-.1-1-.4l-2.4-2.2c-.6-.6-.7-1.5-.1-2.1.6-.6 1.5-.7 2.1-.1l2.4 2.2c.6.6.7 1.5.1 2.1-.2.4-.7.5-1.1.5zm10.4-2.4c-.4 0-.7-.1-1-.4l-2.4-2.2c-.6-.6-.7-1.5-.1-2.1.6-.6 1.5-.7 2.1-.1l2.4 2.2c.6.6.7 1.5.1 2.1-.2.4-.6.5-1.1.5zm-12.4 14.6c-.4 0-.7-.1-1-.4l-2.1-1.9c-.6-.6-.7-1.5-.1-2.1.6-.6 1.5-.7 2.1-.1l2.1 1.9c.6.6.7 1.5.1 2.1-.3.4-.7.5-1.1.5zm-16.1 8.4c-.4 0-.7-.1-1-.4l-2.1-1.9c-.6-.6-.7-1.5-.1-2.1.6-.6 1.5-.7 2.1-.1l2.1 1.9c.6.6.7 1.5.1 2.1-.3.4-.7.5-1.1.5zm-12.9 3.1c-.4 0-.7-.1-1-.4l-2.1-1.9c-.6-.6-.7-1.5-.1-2.1.6-.6 1.5-.7 2.1-.1l2.1 1.9c.6.6.7 1.5.1 2.1-.3.3-.7.5-1.1.5zm17.9-25.5c-.4 0-.7-.1-1-.4l-3.3-3c-.6-.6-.7-1.5-.1-2.1.6-.6 1.5-.7 2.1-.1l3.3 3c.6.6.7 1.5.1 2.1-.3.3-.7.5-1.1.5zm24.099-31.1c-.9 0-1.5-.7-1.5-1.5 0-1.3-.3-1.5-1.4-2.1-1.1-.7-2.7-1.5-4-3.8-.6-1-.7-2.3-.9-3.7-.2-1.7-.4-3.4-1.4-4.2-.5-.4-1.9-.4-3.1-.4-1.7 0-3.6 0-5.2-.8-1.3-.6-2.2-1.9-3.1-3.2-.9-1.2-1.8-2.5-2.9-2.8-1.4-.4-3.1.3-4.7 1-1.4.6-2.9 1.2-4.3 1.1-1.8 0-3.5-.7-5.1-1.4-1.5-.6-2.9-1.2-3.8-.9-1.4.4-2.4 2.1-3.3 3.7-.8 1.3-1.5 2.5-2.5 3.3-2.2 1.7-4.1 2-5.4 2.2-1.4.2-2 .3-2.8 1.8-.4.7-1.3 1-2.1.6-.7-.4-1-1.3-.6-2.1 1.6-2.8 3.4-3.1 5.1-3.3 1.2-.2 2.4-.3 4-1.6.6-.5 1.2-1.4 1.8-2.5 1.1-1.9 2.5-4.2 5-5 1.9-.6 3.9.2 5.9 1 1.4.5 2.8 1.1 4 1.1.8 0 1.9-.4 3.1-.9 2-.8 4.3-1.7 6.7-1.1 2.1.6 3.4 2.4 4.6 4 .7.9 1.4 1.9 2 2.2 1 .5 2.5.5 3.9.5 1.8 0 3.8 0 5.1 1.1 2 1.6 2.2 4.2 2.5 6.2.1 1 .2 2 .5 2.5.9 1.6 1.9 2.1 2.9 2.7 1.4.8 3 1.7 3 4.8-.5.8-1.1 1.5-2 1.5zm-36.4 10.4c-.2 0-.4 0-.6-.1-.8-.3-1.1-1.2-.8-2 0-.1 2.3-5.3 1.2-9.7-.2-.8.3-1.6 1.1-1.8.8-.2 1.6.3 1.8 1.1 1.3 5.4-1.3 11.4-1.4 11.7-.2.5-.8.8-1.3.8zm4.1 4.8c-.3 0-.5-.1-.8-.2-.7-.4-1-1.4-.5-2.1.2-.3 4-6.6 9.7-10.6.7-.5 1.6-.3 2.1.4s.3 1.6-.4 2.1c-5.2 3.6-8.8 9.6-8.9 9.7-.1.4-.6.7-1.2.7z"/></svg>
